<svg width="512" height="299" fill="none" xmlns="http://www.w3.org/2000/svg"><path d="M424.853 171.264c-8.277-10.453-5.909-15.104 0-24.448.107-.107 68.438-94.528 75.478-126.55l.042-.02C503.872 8.575 500.373 0 483.456 0h-55.979c-14.25 0-20.821 7.36-24.341 15.595 0 0-28.501 68.224-68.821 112.448-13.014 12.778-19.03 16.874-26.134 16.874-3.498 0-8.938-4.096-8.938-15.765V20.245C299.243 6.251 295.253 0 283.456 0h-88.021c-8.939 0-14.251 6.528-14.251 12.608 0 13.27 20.16 16.32 22.251 53.653v81.003c0 17.749-3.222 21.013-10.368 21.013-19.03 0-65.216-68.501-92.587-146.901C94.955 6.166 89.557.021 75.2.021h-56C3.221.021 0 7.381 0 15.616c0 14.55 19.03 86.891 88.49 182.464 46.294 65.237 111.489 100.587 170.795 100.587 35.648 0 40-7.851 40-21.355 0-62.336-3.221-68.224 14.635-68.224 8.277 0 22.528 4.096 55.808 35.563 38.037 37.312 44.288 54.016 65.579 54.016h55.978c15.958 0 24.043-7.851 19.392-23.339-10.645-32.576-82.581-99.584-85.824-104.064z" fill="#fff"/></svg>